<mxfile host="Electron" modified="2023-07-04T00:02:50.924Z" agent="Mozilla/5.0 (Windows NT 10.0; Win64; x64) AppleWebKit/537.36 (KHTML, like Gecko) draw.io/21.4.0 Chrome/112.0.5615.204 Electron/24.5.1 Safari/537.36" etag="1NZ8OlGX4J9yvI3P300g" version="21.4.0" type="device">
  <diagram name="Page-1" id="m6LiDKTiwt1INzLszWRo">
    <mxGraphModel dx="941" dy="641" grid="1" gridSize="10" guides="1" tooltips="1" connect="1" arrows="1" fold="1" page="1" pageScale="1" pageWidth="850" pageHeight="1100" math="0" shadow="0">
      <root>
        <mxCell id="0" />
        <mxCell id="1" parent="0" />
        <mxCell id="ZL30iIRuhbm7L_Ruz17T-1" value="&lt;font style=&quot;font-size: 18px;&quot;&gt;Departments&lt;/font&gt;" style="rounded=0;whiteSpace=wrap;html=1;labelBackgroundColor=none;fillColor=#FAE5C7;strokeColor=#0F8B8D;fontColor=#143642;" parent="1" vertex="1">
          <mxGeometry x="563" y="168" width="120" height="50" as="geometry" />
        </mxCell>
        <mxCell id="ZL30iIRuhbm7L_Ruz17T-2" value="&lt;font style=&quot;font-size: 18px;&quot;&gt;Students&lt;/font&gt;" style="rounded=0;whiteSpace=wrap;html=1;labelBackgroundColor=none;fillColor=#FAE5C7;strokeColor=#0F8B8D;fontColor=#143642;" parent="1" vertex="1">
          <mxGeometry x="193" y="160" width="120" height="50" as="geometry" />
        </mxCell>
        <mxCell id="ZL30iIRuhbm7L_Ruz17T-3" value="st_Name" style="ellipse;whiteSpace=wrap;html=1;labelBackgroundColor=none;fillColor=#FAE5C7;strokeColor=#0F8B8D;fontColor=#143642;" parent="1" vertex="1">
          <mxGeometry x="133" y="110" width="60" height="30" as="geometry" />
        </mxCell>
        <mxCell id="ZL30iIRuhbm7L_Ruz17T-5" value="Fname" style="ellipse;whiteSpace=wrap;html=1;labelBackgroundColor=none;fillColor=#FAE5C7;strokeColor=#0F8B8D;fontColor=#143642;" parent="1" vertex="1">
          <mxGeometry x="63" y="70" width="70" height="20" as="geometry" />
        </mxCell>
        <mxCell id="ZL30iIRuhbm7L_Ruz17T-6" value="Lname" style="ellipse;whiteSpace=wrap;html=1;labelBackgroundColor=none;fillColor=#FAE5C7;strokeColor=#0F8B8D;fontColor=#143642;" parent="1" vertex="1">
          <mxGeometry x="143" y="60" width="70" height="20" as="geometry" />
        </mxCell>
        <mxCell id="ZL30iIRuhbm7L_Ruz17T-7" value="" style="endArrow=none;html=1;rounded=0;entryX=0.5;entryY=1;entryDx=0;entryDy=0;labelBackgroundColor=none;strokeColor=#A8201A;fontColor=default;" parent="1" target="ZL30iIRuhbm7L_Ruz17T-6" edge="1">
          <mxGeometry width="50" height="50" relative="1" as="geometry">
            <mxPoint x="173" y="110" as="sourcePoint" />
            <mxPoint x="553" y="290" as="targetPoint" />
          </mxGeometry>
        </mxCell>
        <mxCell id="ZL30iIRuhbm7L_Ruz17T-8" value="" style="endArrow=none;html=1;rounded=0;entryX=0.5;entryY=1;entryDx=0;entryDy=0;exitX=0.084;exitY=-0.007;exitDx=0;exitDy=0;exitPerimeter=0;labelBackgroundColor=none;strokeColor=#A8201A;fontColor=default;" parent="1" source="ZL30iIRuhbm7L_Ruz17T-2" target="ZL30iIRuhbm7L_Ruz17T-3" edge="1">
          <mxGeometry width="50" height="50" relative="1" as="geometry">
            <mxPoint x="213" y="150" as="sourcePoint" />
            <mxPoint x="408" y="10" as="targetPoint" />
          </mxGeometry>
        </mxCell>
        <mxCell id="ZL30iIRuhbm7L_Ruz17T-9" value="" style="endArrow=none;html=1;rounded=0;entryX=0.718;entryY=0.996;entryDx=0;entryDy=0;entryPerimeter=0;exitX=0;exitY=0;exitDx=0;exitDy=0;labelBackgroundColor=none;strokeColor=#A8201A;fontColor=default;" parent="1" source="ZL30iIRuhbm7L_Ruz17T-3" target="ZL30iIRuhbm7L_Ruz17T-5" edge="1">
          <mxGeometry width="50" height="50" relative="1" as="geometry">
            <mxPoint x="293" y="170" as="sourcePoint" />
            <mxPoint x="313" y="50" as="targetPoint" />
          </mxGeometry>
        </mxCell>
        <mxCell id="ZL30iIRuhbm7L_Ruz17T-11" value="" style="endArrow=none;html=1;rounded=0;labelBackgroundColor=none;strokeColor=#A8201A;fontColor=default;" parent="1" source="ZL30iIRuhbm7L_Ruz17T-4" target="ZL30iIRuhbm7L_Ruz17T-2" edge="1">
          <mxGeometry width="50" height="50" relative="1" as="geometry">
            <mxPoint x="503" y="340" as="sourcePoint" />
            <mxPoint x="553" y="290" as="targetPoint" />
          </mxGeometry>
        </mxCell>
        <mxCell id="ZL30iIRuhbm7L_Ruz17T-13" value="st_address" style="ellipse;whiteSpace=wrap;html=1;labelBackgroundColor=none;fillColor=#FAE5C7;strokeColor=#0F8B8D;fontColor=#143642;" parent="1" vertex="1">
          <mxGeometry x="218" y="80" width="70" height="30" as="geometry" />
        </mxCell>
        <mxCell id="ZL30iIRuhbm7L_Ruz17T-4" value="st_id" style="ellipse;whiteSpace=wrap;html=1;labelBackgroundColor=none;fillColor=#FAE5C7;strokeColor=#0F8B8D;fontColor=#143642;" parent="1" vertex="1">
          <mxGeometry x="93" y="160" width="70" height="40" as="geometry" />
        </mxCell>
        <mxCell id="ZL30iIRuhbm7L_Ruz17T-15" style="edgeStyle=orthogonalEdgeStyle;rounded=0;orthogonalLoop=1;jettySize=auto;html=1;exitX=0.5;exitY=1;exitDx=0;exitDy=0;labelBackgroundColor=none;strokeColor=#A8201A;fontColor=default;" parent="1" source="ZL30iIRuhbm7L_Ruz17T-4" target="ZL30iIRuhbm7L_Ruz17T-4" edge="1">
          <mxGeometry relative="1" as="geometry" />
        </mxCell>
        <mxCell id="ZL30iIRuhbm7L_Ruz17T-16" value="" style="endArrow=none;html=1;rounded=0;labelBackgroundColor=none;strokeColor=#A8201A;fontColor=default;" parent="1" edge="1">
          <mxGeometry width="50" height="50" relative="1" as="geometry">
            <mxPoint x="153" y="188.5" as="sourcePoint" />
            <mxPoint x="103" y="188.5" as="targetPoint" />
          </mxGeometry>
        </mxCell>
        <mxCell id="ZL30iIRuhbm7L_Ruz17T-17" value="" style="endArrow=none;html=1;rounded=0;entryX=0.363;entryY=0.985;entryDx=0;entryDy=0;entryPerimeter=0;labelBackgroundColor=none;strokeColor=#A8201A;fontColor=default;" parent="1" target="ZL30iIRuhbm7L_Ruz17T-13" edge="1">
          <mxGeometry width="50" height="50" relative="1" as="geometry">
            <mxPoint x="233" y="160" as="sourcePoint" />
            <mxPoint x="323" y="120" as="targetPoint" />
          </mxGeometry>
        </mxCell>
        <mxCell id="ZL30iIRuhbm7L_Ruz17T-18" value="st_age" style="ellipse;whiteSpace=wrap;html=1;labelBackgroundColor=none;fillColor=#FAE5C7;strokeColor=#0F8B8D;fontColor=#143642;" parent="1" vertex="1">
          <mxGeometry x="303" y="100" width="60" height="30" as="geometry" />
        </mxCell>
        <mxCell id="ZL30iIRuhbm7L_Ruz17T-19" value="" style="endArrow=none;html=1;rounded=0;entryX=0.283;entryY=0.896;entryDx=0;entryDy=0;exitX=0.75;exitY=0;exitDx=0;exitDy=0;entryPerimeter=0;labelBackgroundColor=none;strokeColor=#A8201A;fontColor=default;" parent="1" source="ZL30iIRuhbm7L_Ruz17T-2" target="ZL30iIRuhbm7L_Ruz17T-18" edge="1">
          <mxGeometry width="50" height="50" relative="1" as="geometry">
            <mxPoint x="242" y="168" as="sourcePoint" />
            <mxPoint x="273" y="126" as="targetPoint" />
          </mxGeometry>
        </mxCell>
        <mxCell id="ZL30iIRuhbm7L_Ruz17T-22" value="dep_id" style="ellipse;whiteSpace=wrap;html=1;labelBackgroundColor=none;fillColor=#FAE5C7;strokeColor=#0F8B8D;fontColor=#143642;" parent="1" vertex="1">
          <mxGeometry x="513" y="85" width="80" height="40" as="geometry" />
        </mxCell>
        <mxCell id="ZL30iIRuhbm7L_Ruz17T-23" value="" style="endArrow=none;html=1;rounded=0;labelBackgroundColor=none;strokeColor=#A8201A;fontColor=default;" parent="1" edge="1">
          <mxGeometry width="50" height="50" relative="1" as="geometry">
            <mxPoint x="573" y="115" as="sourcePoint" />
            <mxPoint x="523" y="115" as="targetPoint" />
          </mxGeometry>
        </mxCell>
        <mxCell id="ZL30iIRuhbm7L_Ruz17T-25" value="" style="endArrow=none;html=1;rounded=0;entryX=0.615;entryY=0.989;entryDx=0;entryDy=0;entryPerimeter=0;exitX=0.099;exitY=-0.011;exitDx=0;exitDy=0;exitPerimeter=0;labelBackgroundColor=none;strokeColor=#A8201A;fontColor=default;" parent="1" source="ZL30iIRuhbm7L_Ruz17T-1" target="ZL30iIRuhbm7L_Ruz17T-22" edge="1">
          <mxGeometry width="50" height="50" relative="1" as="geometry">
            <mxPoint x="628" y="150" as="sourcePoint" />
            <mxPoint x="498" y="200" as="targetPoint" />
          </mxGeometry>
        </mxCell>
        <mxCell id="ZL30iIRuhbm7L_Ruz17T-26" value="dep_name&lt;br&gt;" style="ellipse;whiteSpace=wrap;html=1;labelBackgroundColor=none;fillColor=#FAE5C7;strokeColor=#0F8B8D;fontColor=#143642;" parent="1" vertex="1">
          <mxGeometry x="618" y="80" width="80" height="40" as="geometry" />
        </mxCell>
        <mxCell id="ZL30iIRuhbm7L_Ruz17T-27" value="" style="endArrow=none;html=1;rounded=0;entryX=0.5;entryY=1;entryDx=0;entryDy=0;exitX=0.75;exitY=0;exitDx=0;exitDy=0;labelBackgroundColor=none;strokeColor=#A8201A;fontColor=default;" parent="1" source="ZL30iIRuhbm7L_Ruz17T-1" target="ZL30iIRuhbm7L_Ruz17T-26" edge="1">
          <mxGeometry width="50" height="50" relative="1" as="geometry">
            <mxPoint x="698" y="160" as="sourcePoint" />
            <mxPoint x="617" y="145" as="targetPoint" />
          </mxGeometry>
        </mxCell>
        <mxCell id="ZL30iIRuhbm7L_Ruz17T-28" value="&lt;font style=&quot;font-size: 18px;&quot;&gt;Courses&lt;/font&gt;" style="rounded=0;whiteSpace=wrap;html=1;labelBackgroundColor=none;fillColor=#FAE5C7;strokeColor=#0F8B8D;fontColor=#143642;" parent="1" vertex="1">
          <mxGeometry x="158" y="395" width="120" height="50" as="geometry" />
        </mxCell>
        <mxCell id="ZL30iIRuhbm7L_Ruz17T-29" value="crs_id" style="ellipse;whiteSpace=wrap;html=1;labelBackgroundColor=none;fillColor=#FAE5C7;strokeColor=#0F8B8D;fontColor=#143642;" parent="1" vertex="1">
          <mxGeometry x="33" y="425" width="80" height="30" as="geometry" />
        </mxCell>
        <mxCell id="ZL30iIRuhbm7L_Ruz17T-30" value="crs_duration" style="ellipse;whiteSpace=wrap;html=1;labelBackgroundColor=none;fillColor=#FAE5C7;strokeColor=#0F8B8D;fontColor=#143642;" parent="1" vertex="1">
          <mxGeometry x="53" y="512.5" width="80" height="35" as="geometry" />
        </mxCell>
        <mxCell id="ZL30iIRuhbm7L_Ruz17T-31" value="crs_description" style="ellipse;whiteSpace=wrap;html=1;labelBackgroundColor=none;fillColor=#FAE5C7;strokeColor=#0F8B8D;fontColor=#143642;" parent="1" vertex="1">
          <mxGeometry x="103" y="550" width="110" height="30" as="geometry" />
        </mxCell>
        <mxCell id="ZL30iIRuhbm7L_Ruz17T-32" value="crs_name" style="ellipse;whiteSpace=wrap;html=1;labelBackgroundColor=none;fillColor=#FAE5C7;strokeColor=#0F8B8D;fontColor=#143642;" parent="1" vertex="1">
          <mxGeometry x="53" y="470" width="70" height="30" as="geometry" />
        </mxCell>
        <mxCell id="ZL30iIRuhbm7L_Ruz17T-35" value="" style="endArrow=none;html=1;rounded=0;entryX=0;entryY=0.75;entryDx=0;entryDy=0;exitX=1;exitY=0;exitDx=0;exitDy=0;labelBackgroundColor=none;strokeColor=#A8201A;fontColor=default;" parent="1" source="ZL30iIRuhbm7L_Ruz17T-29" target="ZL30iIRuhbm7L_Ruz17T-28" edge="1">
          <mxGeometry width="50" height="50" relative="1" as="geometry">
            <mxPoint x="113" y="465" as="sourcePoint" />
            <mxPoint x="533" y="265" as="targetPoint" />
          </mxGeometry>
        </mxCell>
        <mxCell id="ZL30iIRuhbm7L_Ruz17T-36" value="" style="endArrow=none;html=1;rounded=0;exitX=0.768;exitY=0.03;exitDx=0;exitDy=0;exitPerimeter=0;entryX=0.099;entryY=1.009;entryDx=0;entryDy=0;entryPerimeter=0;labelBackgroundColor=none;strokeColor=#A8201A;fontColor=default;" parent="1" source="ZL30iIRuhbm7L_Ruz17T-32" target="ZL30iIRuhbm7L_Ruz17T-28" edge="1">
          <mxGeometry width="50" height="50" relative="1" as="geometry">
            <mxPoint x="120" y="473" as="sourcePoint" />
            <mxPoint x="183" y="465" as="targetPoint" />
          </mxGeometry>
        </mxCell>
        <mxCell id="ZL30iIRuhbm7L_Ruz17T-37" value="" style="endArrow=none;html=1;rounded=0;exitX=0.686;exitY=-0.016;exitDx=0;exitDy=0;entryX=0.25;entryY=1;entryDx=0;entryDy=0;exitPerimeter=0;labelBackgroundColor=none;strokeColor=#A8201A;fontColor=default;" parent="1" source="ZL30iIRuhbm7L_Ruz17T-30" target="ZL30iIRuhbm7L_Ruz17T-28" edge="1">
          <mxGeometry width="50" height="50" relative="1" as="geometry">
            <mxPoint x="169" y="525" as="sourcePoint" />
            <mxPoint x="193" y="463" as="targetPoint" />
          </mxGeometry>
        </mxCell>
        <mxCell id="ZL30iIRuhbm7L_Ruz17T-39" value="" style="endArrow=none;html=1;rounded=0;entryX=0.5;entryY=1;entryDx=0;entryDy=0;exitX=0.5;exitY=0;exitDx=0;exitDy=0;labelBackgroundColor=none;strokeColor=#A8201A;fontColor=default;" parent="1" source="ZL30iIRuhbm7L_Ruz17T-31" target="ZL30iIRuhbm7L_Ruz17T-28" edge="1">
          <mxGeometry width="50" height="50" relative="1" as="geometry">
            <mxPoint x="163" y="550" as="sourcePoint" />
            <mxPoint x="227" y="465" as="targetPoint" />
          </mxGeometry>
        </mxCell>
        <mxCell id="ZL30iIRuhbm7L_Ruz17T-40" value="&lt;font style=&quot;font-size: 18px;&quot;&gt;Instructors&lt;/font&gt;" style="rounded=0;whiteSpace=wrap;html=1;labelBackgroundColor=none;fillColor=#FAE5C7;strokeColor=#0F8B8D;fontColor=#143642;" parent="1" vertex="1">
          <mxGeometry x="548" y="400" width="120" height="50" as="geometry" />
        </mxCell>
        <mxCell id="ZL30iIRuhbm7L_Ruz17T-41" value="ins_name" style="ellipse;whiteSpace=wrap;html=1;labelBackgroundColor=none;fillColor=#FAE5C7;strokeColor=#0F8B8D;fontColor=#143642;" parent="1" vertex="1">
          <mxGeometry x="518" y="490" width="70" height="40" as="geometry" />
        </mxCell>
        <mxCell id="ZL30iIRuhbm7L_Ruz17T-43" value="ins_id" style="ellipse;whiteSpace=wrap;html=1;labelBackgroundColor=none;fillColor=#FAE5C7;strokeColor=#0F8B8D;fontColor=#143642;" parent="1" vertex="1">
          <mxGeometry x="448" y="460" width="70" height="40" as="geometry" />
        </mxCell>
        <mxCell id="ZL30iIRuhbm7L_Ruz17T-44" value="ins_salary" style="ellipse;whiteSpace=wrap;html=1;labelBackgroundColor=none;fillColor=#FAE5C7;strokeColor=#0F8B8D;fontColor=#143642;" parent="1" vertex="1">
          <mxGeometry x="588" y="500" width="70" height="40" as="geometry" />
        </mxCell>
        <mxCell id="ZL30iIRuhbm7L_Ruz17T-45" value="ins_houreRate" style="ellipse;whiteSpace=wrap;html=1;labelBackgroundColor=none;fillColor=#FAE5C7;strokeColor=#0F8B8D;fontColor=#143642;" parent="1" vertex="1">
          <mxGeometry x="668" y="495" width="110" height="40" as="geometry" />
        </mxCell>
        <mxCell id="ZL30iIRuhbm7L_Ruz17T-46" value="ins_bonus" style="ellipse;whiteSpace=wrap;html=1;labelBackgroundColor=none;fillColor=#FAE5C7;strokeColor=#0F8B8D;fontColor=#143642;" parent="1" vertex="1">
          <mxGeometry x="738" y="445" width="70" height="40" as="geometry" />
        </mxCell>
        <mxCell id="ZL30iIRuhbm7L_Ruz17T-47" value="ins_address" style="ellipse;whiteSpace=wrap;html=1;labelBackgroundColor=none;fillColor=#FAE5C7;strokeColor=#0F8B8D;fontColor=#143642;" parent="1" vertex="1">
          <mxGeometry x="708" y="390" width="80" height="40" as="geometry" />
        </mxCell>
        <mxCell id="ZL30iIRuhbm7L_Ruz17T-48" value="" style="endArrow=none;html=1;rounded=0;exitX=1;exitY=0;exitDx=0;exitDy=0;entryX=0;entryY=1;entryDx=0;entryDy=0;labelBackgroundColor=none;strokeColor=#A8201A;fontColor=default;" parent="1" source="ZL30iIRuhbm7L_Ruz17T-43" target="ZL30iIRuhbm7L_Ruz17T-40" edge="1">
          <mxGeometry width="50" height="50" relative="1" as="geometry">
            <mxPoint x="428" y="350" as="sourcePoint" />
            <mxPoint x="478" y="300" as="targetPoint" />
          </mxGeometry>
        </mxCell>
        <mxCell id="ZL30iIRuhbm7L_Ruz17T-49" value="" style="endArrow=none;html=1;rounded=0;exitX=0.5;exitY=0;exitDx=0;exitDy=0;entryX=0.25;entryY=1;entryDx=0;entryDy=0;labelBackgroundColor=none;strokeColor=#A8201A;fontColor=default;" parent="1" source="ZL30iIRuhbm7L_Ruz17T-41" target="ZL30iIRuhbm7L_Ruz17T-40" edge="1">
          <mxGeometry width="50" height="50" relative="1" as="geometry">
            <mxPoint x="498" y="496" as="sourcePoint" />
            <mxPoint x="558" y="460" as="targetPoint" />
          </mxGeometry>
        </mxCell>
        <mxCell id="ZL30iIRuhbm7L_Ruz17T-50" value="" style="endArrow=none;html=1;rounded=0;entryX=0.5;entryY=1;entryDx=0;entryDy=0;exitX=0.5;exitY=0;exitDx=0;exitDy=0;labelBackgroundColor=none;strokeColor=#A8201A;fontColor=default;" parent="1" source="ZL30iIRuhbm7L_Ruz17T-44" target="ZL30iIRuhbm7L_Ruz17T-40" edge="1">
          <mxGeometry width="50" height="50" relative="1" as="geometry">
            <mxPoint x="618" y="520" as="sourcePoint" />
            <mxPoint x="588" y="460" as="targetPoint" />
          </mxGeometry>
        </mxCell>
        <mxCell id="ZL30iIRuhbm7L_Ruz17T-51" value="" style="endArrow=none;html=1;rounded=0;entryX=0.75;entryY=1;entryDx=0;entryDy=0;exitX=0.252;exitY=-0.044;exitDx=0;exitDy=0;exitPerimeter=0;labelBackgroundColor=none;strokeColor=#A8201A;fontColor=default;" parent="1" source="ZL30iIRuhbm7L_Ruz17T-45" target="ZL30iIRuhbm7L_Ruz17T-40" edge="1">
          <mxGeometry width="50" height="50" relative="1" as="geometry">
            <mxPoint x="633" y="540" as="sourcePoint" />
            <mxPoint x="618" y="460" as="targetPoint" />
          </mxGeometry>
        </mxCell>
        <mxCell id="ZL30iIRuhbm7L_Ruz17T-52" value="" style="endArrow=none;html=1;rounded=0;entryX=1;entryY=1;entryDx=0;entryDy=0;exitX=0;exitY=0.5;exitDx=0;exitDy=0;labelBackgroundColor=none;strokeColor=#A8201A;fontColor=default;" parent="1" source="ZL30iIRuhbm7L_Ruz17T-46" target="ZL30iIRuhbm7L_Ruz17T-40" edge="1">
          <mxGeometry width="50" height="50" relative="1" as="geometry">
            <mxPoint x="726" y="518" as="sourcePoint" />
            <mxPoint x="648" y="460" as="targetPoint" />
          </mxGeometry>
        </mxCell>
        <mxCell id="ZL30iIRuhbm7L_Ruz17T-53" value="" style="endArrow=none;html=1;rounded=0;entryX=1;entryY=0.5;entryDx=0;entryDy=0;exitX=-0.007;exitY=0.733;exitDx=0;exitDy=0;exitPerimeter=0;labelBackgroundColor=none;strokeColor=#A8201A;fontColor=default;" parent="1" source="ZL30iIRuhbm7L_Ruz17T-47" target="ZL30iIRuhbm7L_Ruz17T-40" edge="1">
          <mxGeometry width="50" height="50" relative="1" as="geometry">
            <mxPoint x="708" y="425" as="sourcePoint" />
            <mxPoint x="678" y="460" as="targetPoint" />
          </mxGeometry>
        </mxCell>
        <mxCell id="ZL30iIRuhbm7L_Ruz17T-57" value="top_id" style="ellipse;whiteSpace=wrap;html=1;labelBackgroundColor=none;fillColor=#FAE5C7;strokeColor=#0F8B8D;fontColor=#143642;" parent="1" vertex="1">
          <mxGeometry x="453" y="664.39" width="70" height="35" as="geometry" />
        </mxCell>
        <mxCell id="ZL30iIRuhbm7L_Ruz17T-59" value="top_name" style="ellipse;whiteSpace=wrap;html=1;labelBackgroundColor=none;fillColor=#FAE5C7;strokeColor=#0F8B8D;fontColor=#143642;" parent="1" vertex="1">
          <mxGeometry x="373" y="664.39" width="70" height="35" as="geometry" />
        </mxCell>
        <mxCell id="ZL30iIRuhbm7L_Ruz17T-60" value="" style="endArrow=none;html=1;rounded=0;exitX=0.5;exitY=0;exitDx=0;exitDy=0;labelBackgroundColor=none;strokeColor=#A8201A;fontColor=default;entryX=0.378;entryY=1.03;entryDx=0;entryDy=0;entryPerimeter=0;" parent="1" source="ZL30iIRuhbm7L_Ruz17T-59" target="QyB9mnakoSr59TJeNr_S-4" edge="1">
          <mxGeometry width="50" height="50" relative="1" as="geometry">
            <mxPoint x="434" y="615.39" as="sourcePoint" />
            <mxPoint x="430" y="620" as="targetPoint" />
          </mxGeometry>
        </mxCell>
        <mxCell id="ZL30iIRuhbm7L_Ruz17T-61" value="" style="endArrow=none;html=1;rounded=0;exitX=0.37;exitY=0.006;exitDx=0;exitDy=0;exitPerimeter=0;entryX=0.75;entryY=1;entryDx=0;entryDy=0;labelBackgroundColor=none;strokeColor=#A8201A;fontColor=default;" parent="1" source="ZL30iIRuhbm7L_Ruz17T-57" target="QyB9mnakoSr59TJeNr_S-4" edge="1">
          <mxGeometry width="50" height="50" relative="1" as="geometry">
            <mxPoint x="418" y="674.39" as="sourcePoint" />
            <mxPoint x="457.74873734152925" y="629.9966017177982" as="targetPoint" />
          </mxGeometry>
        </mxCell>
        <mxCell id="ZL30iIRuhbm7L_Ruz17T-62" value="Take" style="rhombus;whiteSpace=wrap;html=1;labelBackgroundColor=none;fillColor=#FAE5C7;strokeColor=#0F8B8D;fontColor=#143642;" parent="1" vertex="1">
          <mxGeometry x="213" y="270" width="60" height="50" as="geometry" />
        </mxCell>
        <mxCell id="ZL30iIRuhbm7L_Ruz17T-63" value="" style="endArrow=none;html=1;rounded=0;entryX=0.5;entryY=1;entryDx=0;entryDy=0;exitX=0.609;exitY=0.011;exitDx=0;exitDy=0;exitPerimeter=0;labelBackgroundColor=none;strokeColor=#A8201A;fontColor=default;" parent="1" source="ZL30iIRuhbm7L_Ruz17T-28" target="ZL30iIRuhbm7L_Ruz17T-62" edge="1">
          <mxGeometry width="50" height="50" relative="1" as="geometry">
            <mxPoint x="233" y="390" as="sourcePoint" />
            <mxPoint x="228" y="455" as="targetPoint" />
          </mxGeometry>
        </mxCell>
        <mxCell id="ZL30iIRuhbm7L_Ruz17T-64" value="" style="endArrow=none;html=1;rounded=0;entryX=0.5;entryY=1;entryDx=0;entryDy=0;exitX=0.5;exitY=0;exitDx=0;exitDy=0;labelBackgroundColor=none;strokeColor=#A8201A;fontColor=default;" parent="1" source="ZL30iIRuhbm7L_Ruz17T-62" target="ZL30iIRuhbm7L_Ruz17T-2" edge="1">
          <mxGeometry width="50" height="50" relative="1" as="geometry">
            <mxPoint x="243" y="400" as="sourcePoint" />
            <mxPoint x="253" y="330" as="targetPoint" />
          </mxGeometry>
        </mxCell>
        <mxCell id="ZL30iIRuhbm7L_Ruz17T-65" value="m" style="text;html=1;align=center;verticalAlign=middle;resizable=0;points=[];autosize=1;strokeColor=none;fillColor=none;labelBackgroundColor=none;fontColor=#143642;" parent="1" vertex="1">
          <mxGeometry x="218" y="228" width="30" height="30" as="geometry" />
        </mxCell>
        <mxCell id="ZL30iIRuhbm7L_Ruz17T-66" value="m" style="text;html=1;align=center;verticalAlign=middle;resizable=0;points=[];autosize=1;strokeColor=none;fillColor=none;labelBackgroundColor=none;fontColor=#143642;" parent="1" vertex="1">
          <mxGeometry x="208" y="328" width="30" height="30" as="geometry" />
        </mxCell>
        <mxCell id="ZL30iIRuhbm7L_Ruz17T-67" value="Contain" style="rhombus;whiteSpace=wrap;html=1;labelBackgroundColor=none;fillColor=#FAE5C7;strokeColor=#0F8B8D;fontColor=#143642;" parent="1" vertex="1">
          <mxGeometry x="543" y="280" width="60" height="50" as="geometry" />
        </mxCell>
        <mxCell id="ZL30iIRuhbm7L_Ruz17T-68" value="" style="endArrow=none;html=1;rounded=0;entryX=0.25;entryY=1;entryDx=0;entryDy=0;labelBackgroundColor=none;strokeColor=#A8201A;fontColor=default;" parent="1" source="ZL30iIRuhbm7L_Ruz17T-67" target="ZL30iIRuhbm7L_Ruz17T-1" edge="1">
          <mxGeometry width="50" height="50" relative="1" as="geometry">
            <mxPoint x="708" y="170" as="sourcePoint" />
            <mxPoint x="718" y="135" as="targetPoint" />
          </mxGeometry>
        </mxCell>
        <mxCell id="ZL30iIRuhbm7L_Ruz17T-69" value="" style="endArrow=none;html=1;rounded=0;entryX=0.25;entryY=0;entryDx=0;entryDy=0;exitX=0.5;exitY=1;exitDx=0;exitDy=0;labelBackgroundColor=none;strokeColor=#A8201A;fontColor=default;" parent="1" source="ZL30iIRuhbm7L_Ruz17T-67" target="ZL30iIRuhbm7L_Ruz17T-40" edge="1">
          <mxGeometry width="50" height="50" relative="1" as="geometry">
            <mxPoint x="653" y="294" as="sourcePoint" />
            <mxPoint x="670" y="222" as="targetPoint" />
          </mxGeometry>
        </mxCell>
        <mxCell id="ZL30iIRuhbm7L_Ruz17T-72" value="1" style="text;html=1;align=center;verticalAlign=middle;resizable=0;points=[];autosize=1;strokeColor=none;fillColor=none;labelBackgroundColor=none;fontColor=#143642;" parent="1" vertex="1">
          <mxGeometry x="588" y="230" width="30" height="30" as="geometry" />
        </mxCell>
        <mxCell id="ZL30iIRuhbm7L_Ruz17T-73" value="m" style="text;html=1;align=center;verticalAlign=middle;resizable=0;points=[];autosize=1;strokeColor=none;fillColor=none;labelBackgroundColor=none;fontColor=#143642;" parent="1" vertex="1">
          <mxGeometry x="573" y="348" width="30" height="30" as="geometry" />
        </mxCell>
        <mxCell id="ZL30iIRuhbm7L_Ruz17T-77" value="Manage" style="rhombus;whiteSpace=wrap;html=1;labelBackgroundColor=none;fillColor=#FAE5C7;strokeColor=#0F8B8D;fontColor=#143642;" parent="1" vertex="1">
          <mxGeometry x="628" y="275" width="60" height="50" as="geometry" />
        </mxCell>
        <mxCell id="ZL30iIRuhbm7L_Ruz17T-78" value="" style="endArrow=none;html=1;rounded=0;exitX=0;exitY=1;exitDx=0;exitDy=0;labelBackgroundColor=none;strokeColor=#A8201A;fontColor=default;" parent="1" source="ZL30iIRuhbm7L_Ruz17T-77" edge="1">
          <mxGeometry width="50" height="50" relative="1" as="geometry">
            <mxPoint x="728" y="320" as="sourcePoint" />
            <mxPoint x="658" y="400" as="targetPoint" />
          </mxGeometry>
        </mxCell>
        <mxCell id="ZL30iIRuhbm7L_Ruz17T-81" value="" style="endArrow=none;html=1;rounded=0;exitX=0.409;exitY=0.849;exitDx=0;exitDy=0;exitPerimeter=0;labelBackgroundColor=none;strokeColor=#A8201A;fontColor=default;" parent="1" source="ZL30iIRuhbm7L_Ruz17T-77" edge="1">
          <mxGeometry width="50" height="50" relative="1" as="geometry">
            <mxPoint x="738" y="330" as="sourcePoint" />
            <mxPoint x="668" y="400" as="targetPoint" />
          </mxGeometry>
        </mxCell>
        <mxCell id="ZL30iIRuhbm7L_Ruz17T-82" value="" style="endArrow=none;html=1;rounded=0;exitX=0.75;exitY=1;exitDx=0;exitDy=0;labelBackgroundColor=none;strokeColor=#A8201A;fontColor=default;" parent="1" source="ZL30iIRuhbm7L_Ruz17T-1" target="ZL30iIRuhbm7L_Ruz17T-77" edge="1">
          <mxGeometry width="50" height="50" relative="1" as="geometry">
            <mxPoint x="743" y="332" as="sourcePoint" />
            <mxPoint x="678" y="410" as="targetPoint" />
          </mxGeometry>
        </mxCell>
        <mxCell id="ZL30iIRuhbm7L_Ruz17T-84" value="1" style="text;html=1;align=center;verticalAlign=middle;resizable=0;points=[];autosize=1;strokeColor=none;fillColor=none;labelBackgroundColor=none;fontColor=#143642;" parent="1" vertex="1">
          <mxGeometry x="658" y="230" width="30" height="30" as="geometry" />
        </mxCell>
        <mxCell id="ZL30iIRuhbm7L_Ruz17T-85" value="1" style="text;html=1;align=center;verticalAlign=middle;resizable=0;points=[];autosize=1;strokeColor=none;fillColor=none;labelBackgroundColor=none;fontColor=#143642;" parent="1" vertex="1">
          <mxGeometry x="668" y="340" width="30" height="30" as="geometry" />
        </mxCell>
        <mxCell id="ZL30iIRuhbm7L_Ruz17T-86" value="hiring_date" style="ellipse;whiteSpace=wrap;html=1;labelBackgroundColor=none;fillColor=#FAE5C7;strokeColor=#0F8B8D;fontColor=#143642;" parent="1" vertex="1">
          <mxGeometry x="708" y="280" width="110" height="40" as="geometry" />
        </mxCell>
        <mxCell id="ZL30iIRuhbm7L_Ruz17T-87" value="" style="endArrow=none;html=1;rounded=0;entryX=1;entryY=0.5;entryDx=0;entryDy=0;labelBackgroundColor=none;strokeColor=#A8201A;fontColor=default;" parent="1" source="ZL30iIRuhbm7L_Ruz17T-86" target="ZL30iIRuhbm7L_Ruz17T-77" edge="1">
          <mxGeometry width="50" height="50" relative="1" as="geometry">
            <mxPoint x="663" y="228" as="sourcePoint" />
            <mxPoint x="708" y="299" as="targetPoint" />
          </mxGeometry>
        </mxCell>
        <mxCell id="ZL30iIRuhbm7L_Ruz17T-88" value="Teach" style="rhombus;whiteSpace=wrap;html=1;labelBackgroundColor=none;fillColor=#FAE5C7;strokeColor=#0F8B8D;fontColor=#143642;" parent="1" vertex="1">
          <mxGeometry x="348" y="395" width="70" height="50" as="geometry" />
        </mxCell>
        <mxCell id="ZL30iIRuhbm7L_Ruz17T-89" value="" style="endArrow=none;html=1;rounded=0;exitX=0;exitY=0.5;exitDx=0;exitDy=0;entryX=1;entryY=0.5;entryDx=0;entryDy=0;labelBackgroundColor=none;strokeColor=#A8201A;fontColor=default;" parent="1" source="ZL30iIRuhbm7L_Ruz17T-40" target="ZL30iIRuhbm7L_Ruz17T-88" edge="1">
          <mxGeometry width="50" height="50" relative="1" as="geometry">
            <mxPoint x="428" y="300" as="sourcePoint" />
            <mxPoint x="478" y="250" as="targetPoint" />
          </mxGeometry>
        </mxCell>
        <mxCell id="ZL30iIRuhbm7L_Ruz17T-90" value="" style="endArrow=none;html=1;rounded=0;exitX=0;exitY=0.5;exitDx=0;exitDy=0;entryX=1;entryY=0.5;entryDx=0;entryDy=0;labelBackgroundColor=none;strokeColor=#A8201A;fontColor=default;" parent="1" source="ZL30iIRuhbm7L_Ruz17T-88" target="ZL30iIRuhbm7L_Ruz17T-28" edge="1">
          <mxGeometry width="50" height="50" relative="1" as="geometry">
            <mxPoint x="613" y="445" as="sourcePoint" />
            <mxPoint x="483" y="440" as="targetPoint" />
          </mxGeometry>
        </mxCell>
        <mxCell id="ZL30iIRuhbm7L_Ruz17T-91" value="m" style="text;html=1;align=center;verticalAlign=middle;resizable=0;points=[];autosize=1;strokeColor=none;fillColor=none;labelBackgroundColor=none;fontColor=#143642;" parent="1" vertex="1">
          <mxGeometry x="468" y="395" width="30" height="30" as="geometry" />
        </mxCell>
        <mxCell id="ZL30iIRuhbm7L_Ruz17T-92" value="m" style="text;html=1;align=center;verticalAlign=middle;resizable=0;points=[];autosize=1;strokeColor=none;fillColor=none;labelBackgroundColor=none;fontColor=#143642;" parent="1" vertex="1">
          <mxGeometry x="303" y="390" width="30" height="30" as="geometry" />
        </mxCell>
        <mxCell id="ZL30iIRuhbm7L_Ruz17T-94" value="Has" style="rhombus;whiteSpace=wrap;html=1;labelBackgroundColor=none;fillColor=#FAE5C7;strokeColor=#0F8B8D;fontColor=#143642;" parent="1" vertex="1">
          <mxGeometry x="373" y="160" width="60" height="50" as="geometry" />
        </mxCell>
        <mxCell id="ZL30iIRuhbm7L_Ruz17T-95" value="" style="endArrow=none;html=1;rounded=0;entryX=0;entryY=0.5;entryDx=0;entryDy=0;exitX=1;exitY=0.5;exitDx=0;exitDy=0;labelBackgroundColor=none;strokeColor=#A8201A;fontColor=default;" parent="1" source="ZL30iIRuhbm7L_Ruz17T-94" target="ZL30iIRuhbm7L_Ruz17T-1" edge="1">
          <mxGeometry width="50" height="50" relative="1" as="geometry">
            <mxPoint x="428" y="300" as="sourcePoint" />
            <mxPoint x="478" y="250" as="targetPoint" />
          </mxGeometry>
        </mxCell>
        <mxCell id="ZL30iIRuhbm7L_Ruz17T-96" value="1" style="text;html=1;align=center;verticalAlign=middle;resizable=0;points=[];autosize=1;strokeColor=none;fillColor=none;labelBackgroundColor=none;fontColor=#143642;" parent="1" vertex="1">
          <mxGeometry x="493" y="158" width="30" height="30" as="geometry" />
        </mxCell>
        <mxCell id="ZL30iIRuhbm7L_Ruz17T-97" value="" style="endArrow=none;html=1;rounded=0;entryX=0;entryY=0.5;entryDx=0;entryDy=0;exitX=1;exitY=0.5;exitDx=0;exitDy=0;labelBackgroundColor=none;strokeColor=#A8201A;fontColor=default;" parent="1" source="ZL30iIRuhbm7L_Ruz17T-2" target="ZL30iIRuhbm7L_Ruz17T-94" edge="1">
          <mxGeometry width="50" height="50" relative="1" as="geometry">
            <mxPoint x="498" y="205" as="sourcePoint" />
            <mxPoint x="628" y="213" as="targetPoint" />
          </mxGeometry>
        </mxCell>
        <mxCell id="ZL30iIRuhbm7L_Ruz17T-98" value="m" style="text;html=1;align=center;verticalAlign=middle;resizable=0;points=[];autosize=1;strokeColor=none;fillColor=none;labelBackgroundColor=none;fontColor=#143642;" parent="1" vertex="1">
          <mxGeometry x="333" y="160" width="30" height="30" as="geometry" />
        </mxCell>
        <mxCell id="QyB9mnakoSr59TJeNr_S-1" value="Classify&lt;br&gt;" style="rhombus;whiteSpace=wrap;html=1;rotation=45;labelBackgroundColor=none;fillColor=#FAE5C7;strokeColor=#0F8B8D;fontColor=#143642;" vertex="1" parent="1">
          <mxGeometry x="292.73" y="499.27" width="77" height="60" as="geometry" />
        </mxCell>
        <mxCell id="QyB9mnakoSr59TJeNr_S-2" value="" style="endArrow=none;html=1;rounded=0;entryX=0.57;entryY=0.992;entryDx=0;entryDy=0;entryPerimeter=0;labelBackgroundColor=none;strokeColor=#A8201A;fontColor=default;" edge="1" parent="1" target="ZL30iIRuhbm7L_Ruz17T-2">
          <mxGeometry width="50" height="50" relative="1" as="geometry">
            <mxPoint x="250" y="270" as="sourcePoint" />
            <mxPoint x="313" y="225" as="targetPoint" />
          </mxGeometry>
        </mxCell>
        <mxCell id="QyB9mnakoSr59TJeNr_S-3" value="" style="endArrow=none;html=1;rounded=0;exitX=0.642;exitY=0.004;exitDx=0;exitDy=0;exitPerimeter=0;labelBackgroundColor=none;strokeColor=#A8201A;fontColor=default;" edge="1" parent="1" source="ZL30iIRuhbm7L_Ruz17T-28">
          <mxGeometry width="50" height="50" relative="1" as="geometry">
            <mxPoint x="240" y="390" as="sourcePoint" />
            <mxPoint x="250" y="310" as="targetPoint" />
          </mxGeometry>
        </mxCell>
        <mxCell id="QyB9mnakoSr59TJeNr_S-4" value="Topic" style="rounded=0;whiteSpace=wrap;html=1;labelBackgroundColor=none;fillColor=#FAE5C7;strokeColor=#0F8B8D;fontColor=#143642;" vertex="1" parent="1">
          <mxGeometry x="400" y="590" width="80" height="40" as="geometry" />
        </mxCell>
        <mxCell id="QyB9mnakoSr59TJeNr_S-5" value="" style="endArrow=none;html=1;rounded=0;exitX=1;exitY=1;exitDx=0;exitDy=0;entryX=0.126;entryY=0.422;entryDx=0;entryDy=0;entryPerimeter=0;labelBackgroundColor=none;strokeColor=#A8201A;fontColor=default;" edge="1" parent="1" source="ZL30iIRuhbm7L_Ruz17T-28" target="QyB9mnakoSr59TJeNr_S-1">
          <mxGeometry width="50" height="50" relative="1" as="geometry">
            <mxPoint x="253" y="530" as="sourcePoint" />
            <mxPoint x="310" y="500" as="targetPoint" />
          </mxGeometry>
        </mxCell>
        <mxCell id="QyB9mnakoSr59TJeNr_S-6" value="" style="endArrow=none;html=1;rounded=0;exitX=1;exitY=1;exitDx=0;exitDy=0;entryX=0;entryY=0.5;entryDx=0;entryDy=0;labelBackgroundColor=none;strokeColor=#A8201A;fontColor=default;" edge="1" parent="1" target="QyB9mnakoSr59TJeNr_S-1">
          <mxGeometry width="50" height="50" relative="1" as="geometry">
            <mxPoint x="271" y="445" as="sourcePoint" />
            <mxPoint x="303" y="500" as="targetPoint" />
          </mxGeometry>
        </mxCell>
        <mxCell id="QyB9mnakoSr59TJeNr_S-9" value="" style="endArrow=none;html=1;rounded=0;exitX=1;exitY=0.5;exitDx=0;exitDy=0;entryX=0;entryY=0;entryDx=0;entryDy=0;labelBackgroundColor=none;strokeColor=#A8201A;fontColor=default;" edge="1" parent="1" source="QyB9mnakoSr59TJeNr_S-1" target="QyB9mnakoSr59TJeNr_S-4">
          <mxGeometry width="50" height="50" relative="1" as="geometry">
            <mxPoint x="400" y="460" as="sourcePoint" />
            <mxPoint x="450" y="410" as="targetPoint" />
          </mxGeometry>
        </mxCell>
        <mxCell id="QyB9mnakoSr59TJeNr_S-10" value="m" style="text;html=1;align=center;verticalAlign=middle;resizable=0;points=[];autosize=1;strokeColor=none;fillColor=none;labelBackgroundColor=none;fontColor=#143642;" vertex="1" parent="1">
          <mxGeometry x="295" y="448" width="30" height="30" as="geometry" />
        </mxCell>
        <mxCell id="QyB9mnakoSr59TJeNr_S-11" value="1" style="text;html=1;align=center;verticalAlign=middle;resizable=0;points=[];autosize=1;strokeColor=none;fillColor=none;labelBackgroundColor=none;fontColor=#143642;" vertex="1" parent="1">
          <mxGeometry x="373" y="547.5" width="30" height="30" as="geometry" />
        </mxCell>
        <mxCell id="QyB9mnakoSr59TJeNr_S-12" value="" style="endArrow=none;html=1;rounded=0;labelBackgroundColor=none;strokeColor=#A8201A;fontColor=default;" edge="1" parent="1">
          <mxGeometry width="50" height="50" relative="1" as="geometry">
            <mxPoint x="464.5" y="690" as="sourcePoint" />
            <mxPoint x="511.5" y="690.73" as="targetPoint" />
          </mxGeometry>
        </mxCell>
        <mxCell id="QyB9mnakoSr59TJeNr_S-13" value="" style="endArrow=none;html=1;rounded=0;labelBackgroundColor=none;strokeColor=#A8201A;fontColor=default;" edge="1" parent="1">
          <mxGeometry width="50" height="50" relative="1" as="geometry">
            <mxPoint x="459.5" y="490" as="sourcePoint" />
            <mxPoint x="506.5" y="490.73" as="targetPoint" />
          </mxGeometry>
        </mxCell>
        <mxCell id="QyB9mnakoSr59TJeNr_S-14" value="" style="endArrow=none;html=1;rounded=0;labelBackgroundColor=none;strokeColor=#A8201A;fontColor=default;" edge="1" parent="1">
          <mxGeometry width="50" height="50" relative="1" as="geometry">
            <mxPoint x="46" y="450" as="sourcePoint" />
            <mxPoint x="93" y="450.73" as="targetPoint" />
          </mxGeometry>
        </mxCell>
      </root>
    </mxGraphModel>
  </diagram>
</mxfile>
